HIERARCHY
ROOT Hips
{
	OFFSET 0.0000 0.0000 0.0000
	CHANNELS 6 Xposition Yposition Zposition Zrotation Xrotation Yrotation
	JOINT Ab
	{
		OFFSET -0.0000 8.1305 -0.0000
		CHANNELS 3 Zrotation Xrotation Yrotation
		JOINT Chest
		{
			OFFSET -0.0000 26.2902 -0.0000
			CHANNELS 3 Zrotation Xrotation Yrotation
			JOINT Neck
			{
				OFFSET -0.0000 26.2902 0.0000
				CHANNELS 3 Zrotation Xrotation Yrotation
				JOINT Head
				{
					OFFSET -0.0000 10.8167 0.0000
					CHANNELS 3 Zrotation Xrotation Yrotation
					End Site
					{
						OFFSET -0.0000 16.7167 0.0000
					}
				}
			}
			JOINT LeftCollar
			{
				OFFSET -0.0000 26.2902 0.0000
				CHANNELS 3 Zrotation Xrotation Yrotation
				JOINT LeftShoulder
				{
					OFFSET 19.6667 -0.0000 0.0000
					CHANNELS 3 Zrotation Xrotation Yrotation
					JOINT LeftElbow
					{
						OFFSET 27.2190 0.0000 0.0000
						CHANNELS 3 Zrotation Xrotation Yrotation
						JOINT LeftWrist
						{
							OFFSET 30.7431 0.0000 0.0000
							CHANNELS 3 Zrotation Xrotation Yrotation
							End Site
							{
								OFFSET 0.0000 -14.7500 0.0000
							}
						}
					}
				}
			}
			JOINT RightCollar
			{
				OFFSET -0.0000 26.2902 0.0000
				CHANNELS 3 Zrotation Xrotation Yrotation
				JOINT RightShoulder
				{
					OFFSET -19.6667 0.0000 0.0000
					CHANNELS 3 Zrotation Xrotation Yrotation
					JOINT RightElbow
					{
						OFFSET -27.2190 0.0000 0.0000
						CHANNELS 3 Zrotation Xrotation Yrotation
						JOINT RightWrist
						{
							OFFSET -30.7431 0.0000 0.0000
							CHANNELS 3 Zrotation Xrotation Yrotation
							End Site
							{
								OFFSET -0.0000 -14.7500 0.0000
							}
						}
					}
				}
			}
		}
	}
	JOINT LeftHip
	{
		OFFSET 11.8000 0.0000 0.0000
		CHANNELS 3 Zrotation Xrotation Yrotation
		JOINT LeftKnee
		{
			OFFSET -0.0000 -39.7832 0.0000
			CHANNELS 3 Zrotation Xrotation Yrotation
			JOINT LeftAnkle
			{
				OFFSET -0.0000 -41.7317 0.0000
				CHANNELS 3 Zrotation Xrotation Yrotation
				End Site
				{
					OFFSET -0.0000 -4.9167 16.7167
				}
			}
		}
	}
	JOINT RightHip
	{
		OFFSET -11.8000 0.0000 0.0000
		CHANNELS 3 Zrotation Xrotation Yrotation
		JOINT RightKnee
		{
			OFFSET -0.0000 -39.7832 0.0000
			CHANNELS 3 Zrotation Xrotation Yrotation
			JOINT RightAnkle
			{
				OFFSET -0.0000 -41.7317 0.0000
				CHANNELS 3 Zrotation Xrotation Yrotation
				End Site
				{
					OFFSET -0.0000 -4.9167 16.7167
				}
			}
		}
	}
}
MOTION
Frames: 16
Frame Time: 0.010000
-17.0034 96.9605 175.9252 357.8342 358.4324 176.5918 357.7024 348.0952 0.1918 1.1894 7.8492 0.3690 0.9545 355.7622 0.6854 353.9271 2.5791 0.7847 338.4476 357.4006 13.6391 318.5453 56.3110 341.1066 6.5951 358.1637 328.8841 84.0125 357.6815 342.8686 27.9119 355.9270 343.7396 46.6806 45.6300 2.7682 342.5774 355.2960 30.0194 272.0947 354.5637 12.8049 356.8315 4.6952 357.6308 357.8034 6.8265 4.6789 354.9756 350.5428 17.7485 357.5106 8.6379 9.2612 5.6617 3.8399 9.2877 349.3058 345.0114 315.9746 
-17.0164 96.9593 175.9273 357.8307 358.4090 176.5979 357.6964 348.0914 0.2147 1.2054 7.8413 0.3417 0.8938 355.7703 0.7113 353.9849 2.5848 0.8115 338.4360 357.3949 13.6783 318.5227 56.2927 341.1144 6.6111 358.1550 328.8710 84.0029 357.7018 342.8518 27.9102 355.9319 343.7713 46.6465 45.6458 2.7746 342.5738 355.2940 30.0067 272.1149 354.5792 12.8159 356.8206 4.6302 357.6186 357.7950 6.9051 4.6601 355.0410 350.4988 17.7470 357.4933 8.6178 9.2967 5.6688 3.8303 9.2841 349.2907 345.0288 315.9602 
-17.0307 96.9592 175.9272 357.8331 358.3946 176.6126 357.6907 348.0906 0.1914 1.2049 7.8481 0.3536 0.9613 355.7591 0.6954 353.9143 2.6098 0.7957 338.4484 357.3879 13.6523 318.5137 56.3235 341.1048 6.6486 358.1577 328.8834 83.9808 357.6901 342.8833 27.9151 355.9317 343.7451 46.6348 45.5978 2.7921 342.5400 355.2742 30.0546 272.1464 354.7954 12.7270 356.8192 4.5689 357.5904 357.7761 6.9977 4.6612 355.0851 350.4469 17.7578 357.4829 8.6109 9.3067 5.6773 3.8179 9.2581 349.2983 345.0234 315.9646 
-17.0463 96.9583 175.9269 357.8347 358.3759 176.6256 357.6943 348.0867 0.1971 1.2010 7.8495 0.3374 0.9317 355.7548 0.7009 353.9433 2.6329 0.8039 338.4480 357.3870 13.6738 318.5393 56.3345 341.0626 6.6442 358.1581 328.8958 83.9724 357.6931 342.8896 27.9142 355.9290 343.7655 46.6391 45.5829 2.7735 342.5288 355.2680 30.0747 272.1074 354.8496 12.6078 356.8159 4.5009 357.5677 357.7624 7.0937 4.6224 355.1116 350.3873 17.8023 357.4710 8.6027 9.3170 5.6859 3.8012 9.2348 349.2924 345.0298 315.9648 
-17.0618 96.9550 175.9311 357.8393 358.3460 176.6361 357.6990 348.0790 0.1809 1.1911 7.8505 0.3466 1.0047 355.7592 0.6967 353.8769 2.6319 0.7985 338.4581 357.3679 13.6736 318.5675 56.3703 341.0150 6.6742 358.1379 328.9139 83.9786 357.6882 342.9298 27.9123 355.9301 343.7588 46.6456 45.5653 2.7732 342.5298 355.2755 30.0684 272.1109 354.8438 12.6229 356.8177 4.4146 357.5643 357.7466 7.1978 4.5730 355.1420 350.3342 17.8446 357.4640 8.5777 9.3183 5.6931 3.7881 9.2036 349.2967 345.0215 315.9766 
-17.0810 96.9516 175.9354 357.8430 358.3216 176.6448 357.6232 348.1848 0.2353 1.3220 7.6527 0.3827 0.8625 355.8358 0.7246 354.1320 2.6202 0.8257 338.3836 357.3631 13.6703 318.5126 56.4329 341.1318 6.6206 358.1592 328.9284 83.8966 357.6761 342.8628 27.8604 355.9444 343.7148 46.6781 45.5758 2.6915 342.5351 355.2824 30.0719 271.9709 354.7760 12.4428 356.8151 4.3353 357.5420 357.7278 7.3064 4.5571 355.1638 350.2770 17.8549 357.4530 8.5544 9.2814 5.6989 3.7837 9.2171 349.3097 345.0129 315.9857 
-17.1004 96.9498 175.9338 357.8440 358.3055 176.6446 357.6109 348.2046 0.2414 1.3282 7.6338 0.3967 0.8554 355.8043 0.6767 354.1855 2.6618 0.7770 338.3809 357.3906 13.6220 318.5860 56.4672 341.0555 6.6193 358.1562 328.9679 83.4950 357.6626 342.6321 27.8578 355.9322 343.6377 46.6847 45.5501 2.7029 342.5318 355.2841 30.0668 271.9790 354.7628 12.4389 356.8078 4.2732 357.5278 357.7118 7.4014 4.5252 355.1983 350.2216 17.8870 357.4359 8.5460 9.3023 5.7071 3.7699 9.1953 349.3265 345.0056 315.9734 
-17.1234 96.9461 175.9280 357.8487 358.2969 176.6435 357.6263 348.2118 0.2501 1.3175 7.6450 0.4005 0.8486 355.7938 0.6712 354.1918 2.6842 0.7745 338.3828 357.3913 13.6284 318.5781 56.4657 341.0403 6.6655 358.1298 328.9584 83.5294 357.6720 342.6590 27.8476 355.9112 343.6484 46.6948 45.5734 2.6798 342.5400 355.2834 30.0654 271.8933 354.7406 12.4003 356.7973 4.2293 357.4910 357.6924 7.4761 4.5599 355.2712 350.2043 17.9019 357.4193 8.5474 9.3058 5.7157 3.7542 9.1703 349.3992 344.9744 315.9922 
-17.1480 96.9426 175.9262 357.8485 358.2796 176.6332 357.6429 348.2160 0.2576 1.3005 7.6567 0.4071 0.8701 355.7772 0.6727 354.1695 2.7096 0.7768 338.3862 357.3921 13.6444 318.6172 56.4727 340.9782 6.6758 358.1371 328.9381 83.6945 357.6938 342.8218 27.8524 355.9178 343.6496 46.6759 45.5808 2.6785 342.5749 355.2819 30.0755 271.8483 354.7349 12.4287 356.7802 4.1606 357.4888 357.6845 7.5749 4.5352 355.3104 350.1603 17.9408 357.3935 8.5225 9.3297 5.7344 3.7660 9.1460 349.3731 344.9760 316.0111 
-17.1733 96.9406 175.9162 357.8491 358.2720 176.6191 357.6544 348.2071 0.2654 1.2929 7.6956 0.4151 0.8948 355.7782 0.6809 354.1388 2.7100 0.7845 338.3864 357.3991 13.6432 318.6034 56.4434 340.9794 6.6702 358.1428 328.9128 83.7725 357.6981 342.8446 27.8463 355.9150 343.6598 46.6607 45.5941 2.6872 342.5670 355.2924 30.0792 271.8890 354.7307 12.4166 356.7632 4.1264 357.4697 357.6718 7.6381 4.5105 355.3576 350.1225 18.0028 357.3676 8.5152 9.3606 5.7505 3.7679 9.1247 349.3430 344.9795 316.0109 
-17.1969 96.9379 175.9044 357.8543 358.2647 176.5997 357.6640 348.2018 0.2726 1.2937 7.7289 0.4257 0.9230 355.7949 0.6916 354.1019 2.6973 0.7946 338.3925 357.3772 13.6531 318.5963 56.4640 340.9637 6.7341 358.1310 328.9113 83.7394 357.6765 342.8755 27.8428 355.9287 343.6710 46.6449 45.5795 2.6914 342.5952 355.2950 30.0954 271.8799 354.7468 12.4053 356.7520 4.0867 357.4421 357.6604 7.7244 4.5125 355.3611 350.0581 18.0308 357.3515 8.5077 9.3640 5.7561 3.7746 9.1105 349.3462 344.9763 316.0368 
-17.2242 96.9337 175.8942 357.8537 358.2517 176.5831 357.6737 348.2000 0.2810 1.2902 7.7493 0.4300 0.9313 355.8256 0.7037 354.0870 2.6780 0.8068 338.3958 357.3776 13.6760 318.5998 56.4700 340.9392 6.7160 358.1501 328.9110 83.7554 357.6711 342.9166 27.8394 355.9393 343.6896 46.6422 45.5836 2.6892 342.5715 355.2895 30.0943 271.8955 354.7434 12.3698 356.7327 4.0376 357.4105 357.6396 7.8076 4.5350 355.4210 350.0167 18.0701 357.3258 8.4863 9.3295 5.7666 3.7996 9.1422 349.3812 344.9435 316.0452 
-17.2526 96.9317 175.8837 357.8498 358.2311 176.5704 357.6704 348.1907 0.2915 1.2976 7.7655 0.4359 0.9426 355.8638 0.7154 354.0789 2.6552 0.8164 338.3861 357.3748 13.6872 318.6187 56.4837 340.9168 6.7131 358.1124 328.9008 83.6725 357.6943 342.8677 27.9124 355.9562 343.8257 46.6194 45.3274 2.5132 342.7098 355.3205 30.2201 271.8516 354.7845 12.4576 356.7102 3.9789 357.3832 357.6245 7.8991 4.5157 355.4502 349.9683 18.1132 357.3000 8.4442 9.2236 5.7690 3.8627 9.2343 349.4045 344.8989 316.0504 
-17.2793 96.9288 175.8639 357.8543 358.2201 176.5500 357.6852 348.1789 0.3005 1.2916 7.7962 0.4398 0.9514 355.8769 0.7230 354.0574 2.6801 0.8259 338.3907 357.3748 13.6906 318.5872 56.4718 340.9415 6.7304 358.1232 328.8736 83.6029 357.6802 342.8979 27.9083 355.9432 343.8338 46.6193 45.3466 2.5253 342.6698 355.2842 30.1724 271.8945 354.7284 12.5319 356.7008 3.9444 357.3508 357.6012 7.9718 4.5003 355.4689 349.8904 18.1647 357.2838 8.4325 9.2400 5.7689 3.8832 9.2242 349.4222 344.8681 316.0598 
-17.3105 96.9267 175.8518 357.8502 358.1913 176.5373 357.6906 348.1656 0.3032 1.2830 7.8132 0.4447 1.0009 355.8806 0.7338 353.9937 2.7194 0.8387 338.3952 357.3747 13.7099 318.6021 56.4800 340.9097 6.7334 358.1311 328.8795 83.5838 357.6741 342.9022 27.9137 355.9507 343.8430 46.6124 45.3345 2.5143 342.6937 355.2787 30.1948 271.8819 354.7477 12.4982 356.6785 3.8809 357.3438 357.5855 8.0584 4.4865 355.4884 349.8329 18.1879 357.2551 8.3906 9.2297 5.7812 3.9167 9.2300 349.4716 344.8129 316.0592 
-17.3417 96.9234 175.8330 357.8573 358.1841 176.5229 357.7060 348.1648 0.3111 1.2784 7.8494 0.4502 1.0128 355.8747 0.7430 353.9639 2.7541 0.8511 338.4016 357.3809 13.7113 318.5597 56.4499 340.9331 6.7327 358.1253 328.8757 83.5287 357.6779 342.8576 27.9130 355.9614 343.8451 46.5969 45.3214 2.5361 342.6880 355.2984 30.1871 271.8920 354.7193 12.5182 356.6675 3.8477 357.3366 357.5684 8.1397 4.4646 355.5740 349.7828 18.2180 357.2365 8.3849 9.2581 5.7880 3.9286 9.2002 349.4674 344.7983 316.0677 
